<?xml version="1.0" standalone="no"?><!DOCTYPE svg PUBLIC "-//W3C//DTD SVG 1.1//EN" "http://www.w3.org/Graphics/SVG/1.1/DTD/svg11.dtd"><svg t="1736417583017" class="icon" viewBox="0 0 1024 1024" version="1.1" xmlns="http://www.w3.org/2000/svg" p-id="1772" width="500" height="500" xmlns:xlink="http://www.w3.org/1999/xlink"><path d="M505.356205 16.477822c-277.3343 0-502.085258 224.809476-502.085258 502.085258 0 277.276791 224.749949 502.086267 502.085258 502.086267 277.336318 0 502.087276-224.809476 502.087276-502.086267C1007.443481 241.287298 782.692523 16.477822 505.356205 16.477822zM662.25974 330.278839 599.501353 330.278839l0 125.518792-62.76545 0 0 125.522828 62.76545 0 0 125.523837 62.758387 0 0 62.758387L536.735903 769.602683l0-62.758387L536.735903 581.320459l-62.757378 0 0 125.523837 0 62.758387L348.454688 769.602683l0-62.758387 62.758387 0L411.213075 581.320459l62.764441 0L473.977516 455.797631l-62.764441 0L411.213075 330.278839l-62.758387 0 0-62.761414 125.522828 0 0 62.761414 0 125.518792 62.757378 0L536.734894 330.278839l0-62.761414 125.523837 0L662.258731 330.278839z" fill="#d81e06" p-id="1773"></path></svg>